<svg xmlns="http://www.w3.org/2000/svg" xmlns:xlink="http://www.w3.org/1999/xlink" viewBox="0 0 200 200"><defs><style>.cls-1{fill:none;}.cls-2{isolation:isolate;}.cls-3{fill:#434343;}.cls-4{fill:#232323;}.cls-5{fill:#ee2424;}.cls-6{fill:#cf2227;}.cls-7{fill:#ef4041;}.cls-8{fill:#2e2525;}.cls-9{fill:#4a3d3d;}.cls-10{fill:#a8d9e0;opacity:0.88;}.cls-11{fill:#4e5c61;}.cls-12{clip-path:url(#clip-path);}.cls-13{fill:#607983;}.cls-14{fill:#50595c;}.cls-15,.cls-16{fill:#fff;}.cls-15{opacity:0.64;mix-blend-mode:overlay;}.cls-17{fill:#261f1f;}.cls-18{clip-path:url(#clip-path-2);}.cls-19{fill:#991c1f;opacity:0.2;mix-blend-mode:multiply;}.cls-20{fill:#6c401a;}.cls-21{fill:#f2b383;}.cls-22{fill:#f9bb88;}.cls-23{fill:#fcc8a0;}.cls-24{fill:#e35e2f;}.cls-25{fill:#d64e28;}.cls-26{fill:#f9d4b9;}</style><clipPath id="clip-path"><path class="cls-1" d="M140.19,50.77H89.25a4.47,4.47,0,0,0-4,2.56L78.53,67.46a3.06,3.06,0,0,0,2.77,4.37s25.06,1,33.42,1,33.42-1,33.42-1a3.06,3.06,0,0,0,2.77-4.37l-6.69-14.13A4.47,4.47,0,0,0,140.19,50.77Z"/></clipPath><clipPath id="clip-path-2"><path class="cls-1" d="M154.33,70l-8.66-18.32c-.22-1.76-2-2.88-3.94-2.88H88.89a5,5,0,0,0-4.55,2.88L75.67,70A10.48,10.48,0,0,0,65.34,80.76l.74,25.37a4.08,4.08,0,0,0,4,3.87H158c3.35,0,5.11-1.71,5.17-3.87l.75-25.37A10.68,10.68,0,0,0,154.33,70Z"/></clipPath></defs><title>corona_icons</title><g class="cls-2"><g id="Layer_1" data-name="Layer 1"><rect class="cls-3" x="65.44" y="88.37" width="15.84" height="25.4" rx="1"/><rect class="cls-4" x="147.9" y="88.41" width="15.84" height="25.4" rx="1"/><path class="cls-5" d="M66,65.1h6.81a.66.66,0,0,1,.66.61h0a7.43,7.43,0,0,0,.69,2.58l1.21,2.57a.68.68,0,0,1-.32.89l-1.8.84a.65.65,0,0,1-.88-.31l-.69-1.47a1.57,1.57,0,0,0-1.42-.9H66.76a.66.66,0,0,1-.65-.52l-.74-3.5A.66.66,0,0,1,66,65.1Z"/><path class="cls-6" d="M163.33,65.1h-6.82a.66.66,0,0,0-.66.61h0a7.59,7.59,0,0,1-.69,2.6L154,70.87a.68.68,0,0,0,.32.89l1.8.84a.65.65,0,0,0,.88-.31l.69-1.47a1.57,1.57,0,0,1,1.42-.9h3.52a.66.66,0,0,0,.65-.52l.74-3.5A.66.66,0,0,0,163.33,65.1Z"/><path class="cls-5" d="M158,110H70.06a4,4,0,0,1-4-3.87l-.74-25.37A10.48,10.48,0,0,1,75.82,70H153.4a10.48,10.48,0,0,1,10.48,10.79l-.75,25.37C163.07,108.29,161.31,110,158,110Z"/><path class="cls-7" d="M156.22,83.31l-13.38.89a8.46,8.46,0,0,0-7.09,4.62l-.37.72H94.16l-.37-.72a8.47,8.47,0,0,0-7.16-4.58l-15.92-.93c-.92,0-2.52-.52-2.46-1.17L69,74.7c.16-1.67,4.76-3,10.17-3,0,0,27.29,2.49,36.19,2.49s34.79-2.49,34.79-2.49c5.41,0,10,1.36,10.16,3l.71,7.44C161,82.79,159.43,83.31,156.22,83.31Z"/><path class="cls-5" d="M78.53,67.46l6.69-14.13a4.47,4.47,0,0,1,4-2.56h50.94a4.47,4.47,0,0,1,4,2.56l6.69,14.13a3.06,3.06,0,0,1-.49,3.35h4.33l-9.06-19.16a5,5,0,0,0-4.55-2.88s-19.82-.41-26.42-.41-26.42.41-26.42.41a5,5,0,0,0-4.55,2.88L74.69,70.81H79A3,3,0,0,1,78.53,67.46Z"/><path class="cls-5" d="M134.23,104.3h-39a2.48,2.48,0,0,1-2.43-3l2.75-13.45a2.47,2.47,0,0,1,2.43-2h33.47a2.47,2.47,0,0,1,2.43,2l2.75,13.45A2.48,2.48,0,0,1,134.23,104.3Z"/><path class="cls-8" d="M134.23,106.68h-39a2.49,2.49,0,0,1-2.43-3l2.75-13.44a2.47,2.47,0,0,1,2.43-2h33.47a2.47,2.47,0,0,1,2.43,2l2.75,13.44A2.49,2.49,0,0,1,134.23,106.68Z"/><path class="cls-9" d="M134.38,106.68H97.82A2.26,2.26,0,0,1,95.53,104l2.58-12a2.31,2.31,0,0,1,2.29-1.78h31.4A2.31,2.31,0,0,1,134.09,92l2.57,12A2.25,2.25,0,0,1,134.38,106.68Z"/><path class="cls-10" d="M140.19,50.77H89.25a4.47,4.47,0,0,0-4,2.56L78.53,67.46a3.06,3.06,0,0,0,2.77,4.37s25.06,1,33.42,1,33.42-1,33.42-1a3.06,3.06,0,0,0,2.77-4.37l-6.69-14.13A4.47,4.47,0,0,0,140.19,50.77Z"/><rect class="cls-11" x="106.59" y="52.9" width="15.13" height="2.73" rx="0.45"/><g class="cls-12"><path class="cls-13" d="M137.76,78.21H123.81a2.61,2.61,0,0,1-2.58-3L123,63.93a2.61,2.61,0,0,1,2.58-2.21H136a2.6,2.6,0,0,1,2.58,2.21l1.72,11.28A2.61,2.61,0,0,1,137.76,78.21Z"/><path class="cls-13" d="M104.49,78.21H90.54a2.61,2.61,0,0,1-2.58-3l1.72-11.28a2.6,2.6,0,0,1,2.58-2.21h10.51a2.6,2.6,0,0,1,2.58,2.21l1.72,11.28A2.61,2.61,0,0,1,104.49,78.21Z"/><path class="cls-14" d="M156.67,75.87H74c-1,0-.68-.85.64-1.84l5-3.76A6.46,6.46,0,0,1,82.73,69H147.9A6.49,6.49,0,0,1,151,70.27L156,74C157.36,75,157.68,75.87,156.67,75.87Z"/><path class="cls-14" d="M142.89,69c0,1.47-4,2.67-9,2.67s-9-1.2-9-2.67,4-2.67,9-2.67S142.89,67.53,142.89,69Z"/><rect class="cls-15" x="90.14" y="61.27" width="44.6" height="7.55" transform="translate(231.63 13.41) rotate(126.53)"/><rect class="cls-15" x="81.88" y="64.11" width="44.6" height="2.41" transform="translate(218.67 20.48) rotate(126.53)"/></g><path class="cls-16" d="M87.17,93.53l-16.89-1a1.08,1.08,0,0,1-1-1.08V86.83a1.07,1.07,0,0,1,1.15-1.08l16.89,1a1.08,1.08,0,0,1,1,1.08v4.57A1.08,1.08,0,0,1,87.17,93.53Z"/><path class="cls-16" d="M142.34,93.53l16.89-1a1.08,1.08,0,0,0,1-1.08V86.83a1.07,1.07,0,0,0-1.15-1.08l-16.89,1a1.08,1.08,0,0,0-1,1.08v4.57A1.08,1.08,0,0,0,142.34,93.53Z"/><path class="cls-17" d="M84.56,103.58l-12.64-.81a.57.57,0,0,0-.59.71l.67,2.76a.58.58,0,0,0,.56.44H88.42a.24.24,0,0,0,.22-.34h0A4.8,4.8,0,0,0,84.56,103.58Z"/><path class="cls-17" d="M145,103.58l12.64-.81a.57.57,0,0,1,.59.71l-.67,2.76a.59.59,0,0,1-.56.44H141.09a.24.24,0,0,1-.22-.34h0A4.79,4.79,0,0,1,145,103.58Z"/><g class="cls-18"><polygon class="cls-19" points="101.11 123.58 153.73 52.54 202.49 88.67 149.87 155.24 101.11 123.58"/></g><path class="cls-20" d="M106.31,114.81c0,1.54-3.14,2.85-7.07,2.92s-7.15-1.14-7.18-2.68,3.15-2.86,7.08-2.93S106.29,113.26,106.31,114.81Z"/><path class="cls-21" d="M168.23,117.5c-2.88-3.52-8-2.7-12.16-1.12L119.15,128l-.11,0-.69,0-48.48-.19c-5.32,0-9.65,3.16-9.67,7.1s5,3.49,10.34,3.51l47.75,3.85a12.78,12.78,0,0,0,3.07-.36,9.07,9.07,0,0,0,2.81-.57l46-17.83A7.68,7.68,0,0,0,168.23,117.5Z"/><path class="cls-22" d="M89.56,111.85s-2.19-7.77-15.4-2.88-20.65,10.76-20.65,10.76l-16.89-.79-1.95,24.29s33.55-3.27,37.12-4.77,40.69-23.64,40.69-23.64Z"/><path class="cls-22" d="M165.81,113c-1.75-2-2.93-2.45-5.09-2.42a20.22,20.22,0,0,0-6.79,1.59L116.5,124.74l-.12.05h-.71l-49.46.84c-5.44.09-9.78,3.42-9.72,7.44s4.53,7.21,10,7.12l49.47-.83a12.63,12.63,0,0,0,3.12-.44,8.89,8.89,0,0,0,2.86-.64l43.8-17.5a15.86,15.86,0,0,0,2.14-1S167.65,115.05,165.81,113Z"/><path class="cls-23" d="M153.31,113.26a20.33,20.33,0,0,1,6.8-1.59c2.16,0,3.34.47,5.08,2.43,1.39,1.55,1.84,4.59,2,6,.43-.22.67-.36.67-.36s-.19-4.69-2-6.76-2.93-2.45-5.09-2.42a20.22,20.22,0,0,0-6.79,1.59l-9.17,3.08Z"/><path class="cls-21" d="M52.94,119.71l-16.32-.77-1.95,24.29s8.55-.83,17.49-1.85Z"/><polygon class="cls-24" points="-0.1 151.64 48.69 151.16 52.57 106.69 -0.85 107 -0.1 151.64"/><polygon class="cls-25" points="-0.84 117.88 46.57 117.5 47.41 107.17 -1.02 107.39 -0.84 117.88"/><path class="cls-21" d="M137.88,117.55,120,120.41c3.17-4.81-2.46.62-2.5.64-.23,0-4.51,1.27-4.75,1.27l-43.44,3.24c.8,1.31,2.56,1.93,5.44,1.34,3.4-.69,19.64,2.63,26,.83l32.12-5.34A6.3,6.3,0,0,0,137.88,117.55Z"/><path class="cls-22" d="M118.88,110.74a119.65,119.65,0,0,1-18.32-1.07c-8.57-1.28-18.14-4-24.78-1.88C42,118.72,72.08,134,82.45,131.4c8-2,33.41-10.72,33.41-10.72Z"/><path class="cls-22" d="M93.94,127.57c-3.37.8,13.37-6,12.57-9.33h0c-.81-3.38-8-5.4-4.62-6.21l27.83-5.78a6.28,6.28,0,0,1,7.57,4.65h0a6.28,6.28,0,0,1-4.65,7.56Z"/><path class="cls-23" d="M136.18,109.83a6.27,6.27,0,0,1-4.65,7.56l-21.32,6.35,22.43-5.28A6.28,6.28,0,0,0,135,107.34,6.24,6.24,0,0,1,136.18,109.83Z"/><path class="cls-26" d="M132.67,108.35l-2.54.62a3.58,3.58,0,0,0,1.68,6.94l2.53-.61a6.84,6.84,0,0,0-.2-3.43C133.42,109,133.15,109,132.67,108.35Z"/><path class="cls-26" d="M117.44,111.39a.4.4,0,0,1,.47.31l1.66,6.89a.4.4,0,0,1-.28.49h0a.39.39,0,0,1-.46-.3l-1.66-6.9a.39.39,0,0,1,.27-.49Z"/><path class="cls-26" d="M119.71,112.74a.33.33,0,0,1,.41.27l.82,3.41a.35.35,0,0,1-.24.43h0a.35.35,0,0,1-.41-.27l-.82-3.41a.34.34,0,0,1,.24-.43Z"/><path class="cls-21" d="M120,135.82a.35.35,0,0,1,.42.27l.82,3.41a.36.36,0,0,1-.24.43h0a.36.36,0,0,1-.42-.27l-.82-3.41a.34.34,0,0,1,.24-.43Z"/><path class="cls-26" d="M165.7,120.77a15.86,15.86,0,0,0,2.14-1,19.06,19.06,0,0,0-.63-3.89,4.63,4.63,0,0,0-2.94.14l-3.08.94a4.29,4.29,0,0,0-2.69,5.43,4.87,4.87,0,0,0,.48,1.09Z"/><path class="cls-22" d="M161.76,126.75l8.42-3.26a6.37,6.37,0,0,0-.24-2.81,5.07,5.07,0,0,0-2.26.3l-3.09.93A4.27,4.27,0,0,0,161.76,126.75Z"/></g></g></svg>