<svg id="Layer_1" data-name="Layer 1" xmlns="http://www.w3.org/2000/svg" viewBox="0 0 200 200"><defs><style>.cls-1{fill:#f6f0eb;}.cls-2{fill:#80d3f1;}.cls-3{fill:#5f8ac7;}.cls-4{fill:#5861ac;}.cls-5{fill:#afe1f1;}.cls-6{fill:#fef4f4;}.cls-7{fill:#194797;}.cls-8{fill:#223b77;}.cls-9{fill:#85d4eb;}.cls-10{fill:#f5885a;}.cls-11{fill:#ef485d;}</style></defs><title>corona_icons</title><path class="cls-1" d="M117.82,121.9V166H148.9a4.38,4.38,0,0,0,4.38-4.38V121.9Zm0,0"/><path class="cls-2" d="M148.9,174.74H86.74A13.16,13.16,0,0,1,73.6,161.6V112.85a44.22,44.22,0,0,1,88.44,0V161.6a13.15,13.15,0,0,1-13.14,13.14Zm0,0"/><path class="cls-3" d="M117.82,68.63V174.74H148.9A13.15,13.15,0,0,0,162,161.6V112.85a44.26,44.26,0,0,0-44.22-44.22Zm0,0"/><path class="cls-3" d="M118.53,160.15a4.39,4.39,0,0,1-4.23-3.25c-6.25-23.32-2.74-36.26.36-47.67,2.76-10.18,5.14-19,.69-34.44a4.38,4.38,0,1,1,8.41-2.42c5.14,17.82,2.2,28.66-.65,39.15-2.94,10.85-6,22.07-.35,43.11a4.38,4.38,0,0,1-3.09,5.37,4.46,4.46,0,0,1-1.14.15Zm0,0"/><path class="cls-4" d="M123.76,72.37a4.37,4.37,0,0,0-5.42-3,4.6,4.6,0,0,0-.52.19v90.53a4.17,4.17,0,0,0,.71.06,4.46,4.46,0,0,0,1.14-.15,4.38,4.38,0,0,0,3.09-5.37c-5.63-21-2.59-32.26.35-43.11,2.85-10.49,5.79-21.33.65-39.15Zm0,0"/><path class="cls-5" d="M86.74,166H148.9a4.38,4.38,0,0,0,4.38-4.38V121.9H82.36v39.7A4.39,4.39,0,0,0,86.74,166Zm0,0"/><path class="cls-6" d="M54,81A16.07,16.07,0,0,1,38,65c0-4.75,3.38-10.15,6.22-13.84a47.7,47.7,0,0,1,4.35-5c1.94-1.9,3.54-3.08,5.49-3.08s3.54,1.18,5.48,3.08a48.93,48.93,0,0,1,4.36,5c2.83,3.69,6.21,9.09,6.21,13.84A16.07,16.07,0,0,1,54,81Zm0,0"/><path class="cls-6" d="M129.05,56.5H106.59a4.38,4.38,0,0,1-4.38-4.38v-21a4.38,4.38,0,0,1,4.38-4.38h22.46a4.38,4.38,0,0,1,4.38,4.38v21a4.38,4.38,0,0,1-4.38,4.38Zm0,0"/><path class="cls-1" d="M129.05,26.72H117.82V56.5h11.23a4.38,4.38,0,0,0,4.38-4.38v-21a4.38,4.38,0,0,0-4.38-4.38Zm0,0"/><path class="cls-7" d="M134.31,34H59a4.38,4.38,0,1,1,0-8.76h75.33a4.38,4.38,0,0,1,0,8.76Zm0,0"/><path class="cls-8" d="M134.31,25.26H117.82V34h16.49a4.38,4.38,0,0,0,0-8.76Zm0,0"/><path class="cls-2" d="M120.85,146.13H112c.55,3.33,1.31,6.91,2.34,10.77a4.39,4.39,0,0,0,4.23,3.25,4.52,4.52,0,0,0,1.14-.15,4.38,4.38,0,0,0,3.09-5.37c-.81-3-1.44-5.85-1.91-8.5Zm0,0"/><path class="cls-9" d="M117.82,121.9V166H148.9a4.38,4.38,0,0,0,4.38-4.38V121.9Zm0,0"/><path class="cls-3" d="M122.76,154.63c-.81-3-1.43-5.85-1.91-8.5h-3v14a4.17,4.17,0,0,0,.71.06,4.46,4.46,0,0,0,1.14-.15,4.38,4.38,0,0,0,3.09-5.37Zm0,0"/><path class="cls-6" d="M135.47,147.88h-35.3a4.38,4.38,0,0,1-4.38-4.38V108.76a4.38,4.38,0,0,1,4.38-4.38h35.3a4.38,4.38,0,0,1,4.38,4.38V143.5a4.38,4.38,0,0,1-4.38,4.38Zm0,0"/><path class="cls-1" d="M135.47,104.38H117.82v43.5h17.65a4.38,4.38,0,0,0,4.38-4.38V108.76a4.38,4.38,0,0,0-4.38-4.38Zm0,0"/><path class="cls-10" d="M122.1,121.85a4.38,4.38,0,0,0-8.56,0,4.38,4.38,0,0,0,0,8.56,4.38,4.38,0,0,0,8.56,0,4.38,4.38,0,0,0,0-8.56Zm0,0"/><path class="cls-11" d="M122.1,121.85a4.38,4.38,0,0,0-4.28-3.46v15.48a4.38,4.38,0,0,0,4.28-3.46,4.38,4.38,0,0,0,0-8.56Zm0,0"/><path class="cls-7" d="M134.89,74H100.75a4.39,4.39,0,0,1-4.38-4.38v-19a4.39,4.39,0,0,1,4.38-4.38h34.14a4.38,4.38,0,0,1,4.38,4.38v19A4.39,4.39,0,0,1,134.89,74Zm0,0"/><path class="cls-8" d="M134.89,46.28H117.82V74h17.07a4.38,4.38,0,0,0,4.38-4.38v-19a4.38,4.38,0,0,0-4.38-4.38Zm0,0"/></svg>